HIERARCHY
ROOT Hips
{
	OFFSET 0.000000 0.000000 0.000000
	CHANNELS 6 Xposition Yposition Zposition Zrotation Xrotation Yrotation
	JOINT Spine
	{
		OFFSET 0.000000 -0.000001 8.775555
		CHANNELS 6 Xposition Yposition Zposition Zrotation Xrotation Yrotation
		JOINT Spine1
		{
			OFFSET 0.000000 -0.000003 19.857292
			CHANNELS 6 Xposition Yposition Zposition Zrotation Xrotation Yrotation
			JOINT Neck
			{
				OFFSET 0.000000 -0.000004 21.997671
				CHANNELS 6 Xposition Yposition Zposition Zrotation Xrotation Yrotation
				JOINT Head
				{
					OFFSET 0.000000 -2.140382 16.587940
					CHANNELS 6 Xposition Yposition Zposition Zrotation Xrotation Yrotation
					End Site
					{
						OFFSET 0.000000 -0.000003 21.403793
					}
				}
			}
			JOINT LeftShoulder
			{
				OFFSET 4.271831 0.466839 17.948576
				CHANNELS 6 Xposition Yposition Zposition Zrotation Xrotation Yrotation
				JOINT LeftArm
				{
					OFFSET 12.381062 0.000000 0.000000
					CHANNELS 6 Xposition Yposition Zposition Zrotation Xrotation Yrotation
					JOINT LeftForeArm
					{
						OFFSET 32.107460 0.000000 0.000000
						CHANNELS 6 Xposition Yposition Zposition Zrotation Xrotation Yrotation
						JOINT LeftHand
						{
							OFFSET 28.716036 0.000000 0.000000
							CHANNELS 6 Xposition Yposition Zposition Zrotation Xrotation Yrotation
							End Site
							{
								OFFSET 16.052847 0.000000 0.000000
							}
						}
					}
				}
			}
			JOINT RightShoulder
			{
				OFFSET -4.280560 0.466839 17.948576
				CHANNELS 6 Xposition Yposition Zposition Zrotation Xrotation Yrotation
				JOINT RightArm
				{
					OFFSET -12.381062 0.000000 0.000000
					CHANNELS 6 Xposition Yposition Zposition Zrotation Xrotation Yrotation
					JOINT RightForeArm
					{
						OFFSET -32.107460 0.000000 0.000000
						CHANNELS 6 Xposition Yposition Zposition Zrotation Xrotation Yrotation
						JOINT RightHand
						{
							OFFSET -28.716036 0.000000 0.000000
							CHANNELS 6 Xposition Yposition Zposition Zrotation Xrotation Yrotation
							End Site
							{
								OFFSET -16.052847 0.000000 0.000000
							}
						}
					}
				}
			}
		}
	}
	JOINT LeftUpLeg
	{
		OFFSET 10.701895 0.000000 0.000000
		CHANNELS 6 Xposition Yposition Zposition Zrotation Xrotation Yrotation
		JOINT LeftLeg
		{
			OFFSET 0.000000 0.000009 -55.700161
			CHANNELS 6 Xposition Yposition Zposition Zrotation Xrotation Yrotation
			JOINT LeftFoot
			{
				OFFSET 0.000000 0.000007 -44.745441
				CHANNELS 6 Xposition Yposition Zposition Zrotation Xrotation Yrotation
				JOINT LeftToeBase
				{
					OFFSET 0.000000 -16.052841 -6.956234
					CHANNELS 6 Xposition Yposition Zposition Zrotation Xrotation Yrotation
					End Site
					{
						OFFSET 0.000000 -4.280758 0.000000
					}
				}
			}
		}
	}
	JOINT RightUpLeg
	{
		OFFSET -10.701895 0.000000 0.000000
		CHANNELS 6 Xposition Yposition Zposition Zrotation Xrotation Yrotation
		JOINT RightLeg
		{
			OFFSET 0.000000 0.000009 -55.700161
			CHANNELS 6 Xposition Yposition Zposition Zrotation Xrotation Yrotation
			JOINT RightFoot
			{
				OFFSET 0.000000 0.000007 -44.745441
				CHANNELS 6 Xposition Yposition Zposition Zrotation Xrotation Yrotation
				JOINT RightToeBase
				{
					OFFSET 0.000000 -16.052841 -6.956234
					CHANNELS 6 Xposition Yposition Zposition Zrotation Xrotation Yrotation
					End Site
					{
						OFFSET 0.000000 -4.280758 0.000000
					}
				}
			}
		}
	}
}
MOTION
Frames: 8
Frame Time: 0.041667
-2.855328 -82.432915 100.484116 85.040950 3.928359 -4.264705 -0.000000 -0.000001 8.775555 -1.339069 -9.640508 -1.427975 0.000003 -0.000005 19.857294 -0.331449 0.999177 -7.193759 -0.000003 -0.000004 21.997658 -21.324598 12.545975 23.331436 -0.000007 -2.140385 16.587944 -23.118715 7.707851 -24.628494 4.271837 0.466840 17.948570 -9.743405 -3.611401 -13.451887 12.381062 0.000004 -0.000006 -1.597047 17.299030 4.802621 32.107468 0.000001 0.000013 0.827724 -18.418585 -11.729964 28.716032 -0.000001 0.000004 -2.981918 -19.401941 41.315678 -4.280560 0.466838 17.948576 -6.292920 11.879050 6.228566 -12.381058 -0.000006 -0.000002 73.429561 12.451560 -76.471652 -32.107468 0.000017 0.000007 14.676173 -12.360400 20.433387 -28.716028 0.000009 0.000003 4.667334 -15.337238 -9.928498 10.701897 0.000001 -0.000006 0.473509 -6.180368 6.995823 -0.000002 0.000009 -55.700165 0.966290 11.939791 3.720998 0.000005 0.000010 -44.745453 24.572910 -11.717173 -3.941592 -0.000001 -16.052837 -6.956226 -0.000002 -0.000001 0.000001 -10.701894 0.000000 -0.000003 1.359673 -10.813876 7.706415 0.000008 0.000009 -55.700153 -5.442257 25.336366 -2.938322 0.000003 0.000014 -44.745438 -9.361004 -21.439644 -2.463184 -0.000003 -16.052839 -6.956234 0.000000 -0.000001 -0.000000 
-2.819196 -82.502655 100.493675 85.022509 3.920471 -4.239009 0.000008 -0.000001 8.775544 -1.350904 -9.674561 -1.431966 -0.000011 -0.000005 19.857285 -0.334131 1.010959 -7.212796 0.000012 -0.000002 21.997677 -21.315152 12.519406 23.360591 -0.000005 -2.140383 16.587957 -23.118037 7.720353 -24.705824 4.271840 0.466842 17.948580 -9.777225 -3.676398 -13.496134 12.381055 0.000003 -0.000019 -1.455739 17.040081 4.735393 32.107452 0.000007 -0.000009 0.838645 -18.239233 -11.632649 28.716038 -0.000006 0.000010 -2.960668 -19.213016 41.219710 -4.280547 0.466842 17.948561 -6.273516 11.876767 6.237318 -12.381049 -0.000001 0.000021 73.272029 12.465095 -76.397558 -32.107475 0.000006 -0.000003 14.695856 -12.263806 20.340766 -28.716043 0.000003 0.000000 4.784999 -15.239308 -9.829632 10.701898 -0.000001 -0.000011 0.416052 -6.150498 6.930203 -0.000008 0.000008 -55.700161 0.985624 11.956093 3.736510 0.000002 0.000009 -44.745445 24.644492 -11.738660 -3.907263 -0.000009 -16.052835 -6.956233 0.000001 -0.000001 -0.000001 -10.701894 -0.000000 -0.000001 1.188682 -10.739624 7.654580 0.000001 0.000010 -55.700157 -5.482605 25.197712 -2.965897 0.000000 0.000008 -44.745441 -9.159110 -21.416586 -2.413878 0.000011 -16.052835 -6.956226 0.000001 -0.000000 0.000001 
-2.783130 -82.562019 100.505066 85.011451 3.897799 -4.231995 -0.000008 -0.000002 8.775555 -1.364583 -9.660536 -1.417292 -0.000006 -0.000006 19.857294 -0.341141 0.978849 -7.238693 0.000003 -0.000002 21.997681 -21.332844 12.529417 23.370565 0.000004 -2.140376 16.587950 -23.143765 7.664982 -24.738696 4.271829 0.466840 17.948589 -9.714120 -3.650172 -13.508671 12.381068 0.000001 -0.000003 -1.431022 16.862880 4.679855 32.107449 0.000004 -0.000006 0.898536 -18.140967 -11.572267 28.716040 -0.000001 0.000037 -2.989638 -19.120090 41.211784 -4.280559 0.466840 17.948568 -6.275064 11.896439 6.235176 -12.381053 -0.000006 0.000012 73.166605 12.502340 -76.332548 -32.107452 0.000001 -0.000005 14.691785 -12.168893 20.338700 -28.716053 0.000003 -0.000005 4.801213 -15.150840 -9.949939 10.701885 0.000000 -0.000002 0.359949 -6.089246 6.906548 -0.000000 0.000009 -55.700161 1.008896 11.904835 3.699409 0.000002 0.000011 -44.745445 24.684468 -11.707694 -3.887438 0.000002 -16.052845 -6.956234 0.000001 0.000002 -0.000001 -10.701895 0.000000 0.000003 0.917239 -10.672596 7.610934 -0.000007 0.000012 -55.700165 -5.431835 25.084230 -2.996926 -0.000010 0.000013 -44.745453 -9.011995 -21.408231 -2.397049 0.000000 -16.052841 -6.956234 0.000000 0.000001 0.000001 
-2.750727 -82.627869 100.516174 85.016608 3.892882 -4.193677 -0.000002 -0.000001 8.775551 -1.350456 -9.740310 -1.410876 0.000004 -0.000004 19.857288 -0.333103 1.013365 -7.299063 0.000006 -0.000006 21.997688 -21.410188 12.636153 23.416011 0.000007 -2.140378 16.587952 -23.216238 7.542459 -24.809452 4.271836 0.466838 17.948591 -9.851374 -3.559522 -13.497588 12.381070 -0.000001 -0.000007 -1.253643 16.672075 4.634027 32.107449 0.000003 -0.000008 0.939948 -18.026025 -11.546040 28.716047 -0.000002 -0.000004 -2.996156 -19.002734 41.154096 -4.280550 0.466838 17.948589 -6.260956 11.907697 6.223075 -12.381064 -0.000002 0.000017 72.921470 12.529953 -76.258160 -32.107464 0.000002 0.000003 14.728504 -12.157832 20.312561 -28.716038 0.000004 0.000016 4.881318 -15.143267 -9.794145 10.701897 0.000000 -0.000001 0.354965 -6.046482 6.846036 -0.000003 0.000009 -55.700172 0.956060 11.840819 3.685110 0.000002 0.000008 -44.745445 24.738962 -11.689094 -3.918490 0.000000 -16.052839 -6.956234 0.000000 -0.000001 0.000001 -10.701892 0.000001 -0.000009 0.728905 -10.605715 7.565855 0.000005 0.000011 -55.700165 -5.444460 24.956488 -3.081274 0.000011 0.000007 -44.745445 -8.842120 -21.364828 -2.327651 0.000003 -16.052841 -6.956233 -0.000001 -0.000001 -0.000000 
-2.721092 -82.688087 100.530586 85.029920 3.885370 -4.174844 -0.000002 -0.000002 8.775553 -1.354812 -9.739487 -1.413579 0.000000 -0.000004 19.857306 -0.336533 0.978036 -7.316916 0.000002 -0.000004 21.997658 -21.434771 12.629891 23.429665 0.000011 -2.140384 16.587952 -23.245710 7.529111 -24.847911 4.271843 0.466839 17.948563 -9.848621 -3.568772 -13.533911 12.381062 0.000006 0.000001 -1.223032 16.561278 4.622864 32.107449 -0.000003 -0.000005 0.965443 -17.925755 -11.526142 28.716036 -0.000004 0.000016 -3.005721 -18.904126 41.152914 -4.280560 0.466838 17.948561 -6.322736 11.894843 6.219978 -12.381069 -0.000004 -0.000007 72.976910 12.590765 -76.257034 -32.107487 0.000001 -0.000001 14.700027 -12.209761 20.373090 -28.716043 -0.000006 -0.000002 4.820701 -15.197489 -9.920493 10.701891 -0.000000 0.000003 0.316425 -6.038873 6.797032 0.000003 0.000008 -55.700165 1.013464 11.894008 3.690150 0.000001 0.000011 -44.745445 24.766665 -11.697824 -3.889831 0.000000 -16.052843 -6.956234 0.000001 0.000002 -0.000001 -10.701889 0.000000 0.000000 0.479363 -10.551479 7.531497 0.000003 0.000012 -55.700165 -5.364068 24.840642 -3.176707 -0.000005 0.000011 -44.745449 -8.712723 -21.319565 -2.273587 0.000010 -16.052843 -6.956234 -0.000001 0.000000 -0.000000 
-2.694473 -82.746376 100.541672 85.060000 3.871896 -4.153910 -0.000005 -0.000001 8.775549 -1.407274 -9.720116 -1.452414 -0.000007 -0.000002 19.857292 -0.358026 0.901384 -7.298608 0.000013 -0.000002 21.997681 -21.422339 12.634644 23.427805 -0.000005 -2.140379 16.587950 -23.231826 7.523626 -24.812322 4.271839 0.466838 17.948582 -9.807005 -3.524161 -13.532778 12.381067 0.000002 0.000008 -1.176428 16.532510 4.545589 32.107452 0.000005 0.000003 0.981758 -17.879762 -11.454907 28.716047 0.000001 0.000029 -2.998834 -18.852999 41.082953 -4.280552 0.466838 17.948563 -6.316309 11.961587 6.261609 -12.381058 -0.000003 0.000008 72.658965 12.525622 -76.124856 -32.107468 0.000003 0.000000 14.783350 -12.143629 20.323284 -28.716049 0.000009 0.000000 4.778986 -15.138011 -9.946928 10.701894 0.000000 -0.000012 0.300756 -6.005997 6.758723 0.000006 0.000009 -55.700172 1.055861 11.889992 3.648098 -0.000002 0.000009 -44.745438 24.714756 -11.682247 -3.853971 0.000008 -16.052845 -6.956241 0.000000 0.000002 -0.000001 -10.701895 0.000001 -0.000007 0.193625 -10.509635 7.484544 0.000000 0.000011 -55.700153 -5.304053 24.753990 -3.239992 0.000002 0.000009 -44.745453 -8.590230 -21.278927 -2.316937 0.000005 -16.052845 -6.956233 -0.000000 -0.000003 -0.000001 
-2.672764 -82.812645 100.561623 85.085231 3.859635 -4.123514 -0.000001 -0.000002 8.775558 -1.444685 -9.720289 -1.473886 -0.000000 -0.000003 19.857285 -0.371388 0.879009 -7.307113 -0.000008 -0.000004 21.997665 -21.434915 12.622253 23.402672 -0.000003 -2.140388 16.587950 -23.247746 7.505237 -24.765825 4.271819 0.466838 17.948559 -9.773425 -3.504898 -13.538290 12.381070 0.000006 0.000017 -1.124868 16.403790 4.476329 32.107464 -0.000000 0.000002 0.986313 -17.746001 -11.403128 28.716038 -0.000005 0.000014 -3.020088 -18.725899 41.025282 -4.280564 0.466840 17.948545 -6.322331 11.973905 6.267941 -12.381056 -0.000005 -0.000007 72.519390 12.518348 -76.070002 -32.107475 0.000005 -0.000000 14.745923 -12.110390 20.336417 -28.716047 0.000003 -0.000002 4.851739 -15.107508 -9.972997 10.701897 0.000000 -0.000004 0.355204 -5.957048 6.725201 -0.000004 0.000008 -55.700161 1.075395 11.848053 3.570908 0.000005 0.000009 -44.745441 24.623269 -11.616884 -3.835701 0.000001 -16.052839 -6.956234 0.000000 0.000002 -0.000000 -10.701904 -0.000001 0.000000 0.009617 -10.434352 7.443442 0.000005 0.000007 -55.700157 -5.272351 24.619009 -3.331415 0.000004 0.000015 -44.745449 -8.495371 -21.212131 -2.308963 0.000006 -16.052839 -6.956234 0.000002 0.000003 0.000000 
-2.641814 -82.878990 100.568260 85.133233 3.850488 -4.106782 -0.000003 -0.000003 8.775554 -1.493652 -9.740091 -1.471524 -0.000008 -0.000005 19.857298 -0.388428 0.862583 -7.336104 0.000008 -0.000002 21.997669 -21.440063 12.612978 23.470994 -0.000001 -2.140380 16.587946 -23.251031 7.551247 -24.836393 4.271842 0.466839 17.948589 -9.770420 -3.493418 -13.541184 12.381067 0.000000 0.000013 -1.039459 16.248581 4.422575 32.107456 0.000002 0.000011 0.939069 -17.621950 -11.362386 28.716034 -0.000003 0.000009 -3.024069 -18.607016 40.965091 -4.280555 0.466838 17.948580 -6.333153 11.965382 6.273059 -12.381047 -0.000005 0.000017 72.158182 12.521091 -75.959026 -32.107487 -0.000005 -0.000001 14.869172 -12.055118 20.245137 -28.716045 0.000011 0.000006 4.844934 -15.061759 -9.961681 10.701895 -0.000001 -0.000005 0.324205 -5.942300 6.679830 0.000003 0.000009 -55.700157 1.061489 11.858755 3.552301 -0.000011 0.000007 -44.745438 24.619487 -11.621657 -3.828381 0.000007 -16.052837 -6.956240 -0.000000 -0.000003 0.000001 -10.701895 -0.000002 -0.000009 -0.261214 -10.399495 7.403768 -0.000001 0.000005 -55.700146 -5.272198 24.568621 -3.365974 0.000008 0.000008 -44.745441 -8.287861 -21.197311 -2.312113 0.000004 -16.052843 -6.956233 0.000001 -0.000002 -0.000000 
